<svg id="Layer_1" data-name="Layer 1" xmlns="http://www.w3.org/2000/svg" viewBox="0 0 274.21 44.75">
  <g>
    <path d="M56.51,8.84H46.2v1.63H56.51Z" fill="#070913"/>
    <path d="M21.82,24.46a7.69,7.69,0,1,1,7.69,7.64A7.67,7.67,0,0,1,21.82,24.46Zm9.93-5.59-6.85,9.5a6.06,6.06,0,0,0,10.66-3.91A6,6,0,0,0,31.75,18.87Z" fill="#070913" fill-rule="evenodd"/>
    <path d="M56.51,12.91h-54v1.63H23.89a11.45,11.45,0,1,0,11.24,0H56.51ZM19.69,24.46a9.82,9.82,0,1,1,9.82,9.76A9.79,9.79,0,0,1,19.69,24.46Z" fill="#070913" fill-rule="evenodd"/>
    <path d="M2.51,8.84H13v1.63H2.51Z"/>
  </g>
  <line x1="78.58" y1="2.84" x2="78.58" y2="41.84" fill="none" stroke="#070913" stroke-width="2"/>
  <path d="M109.93,32.84c-5.58,0-8.84-2.67-9.05-7.66a.2.2,0,0,1,.18-.19h2.64a.2.2,0,0,1,.18.19c.28,3.28,1.83,5.33,6.11,5.33,3.19,0,5.46-1.18,5.46-4,0-5.95-14.11-1.61-14.11-9.92,0-3.94,3.1-6.17,8-6.17s8.06,2.11,8.49,6.63a.2.2,0,0,1-.18.19H115a.2.2,0,0,1-.18-.19c-.22-2.85-2-4.28-5.58-4.28-3.1,0-5.09,1.12-5.09,3.54,0,5.61,14.17,1.36,14.17,9.83C118.3,30.57,114.89,32.84,109.93,32.84Z" fill="#1d1d1b"/>
  <path d="M124.13,32.46a.2.2,0,0,1-.19-.18L124,21.7,124,13.08h-6.14a.19.19,0,0,1-.18-.18v-2a.19.19,0,0,1,.18-.18H133a.19.19,0,0,1,.18.18v2a.19.19,0,0,1-.18.18h-6.14l-.07,8.62.1,10.58a.2.2,0,0,1-.19.18Z" fill="#1d1d1b"/>
  <path d="M142.39,32.87c-6.24,0-10.36-4.47-10.36-11.23,0-6.94,4.09-11.28,10.39-11.28s10.35,4.31,10.35,11.28C152.77,28.43,148.65,32.87,142.39,32.87Zm0-2.39c4.59,0,7.38-3.32,7.38-8.84s-2.76-8.9-7.41-8.9S135,16.09,135,21.64,137.83,30.48,142.42,30.48Z" fill="#1d1d1b"/>
  <path d="M164.71,28.71l-3.32-5.11h-4.65l.06,8.68a.2.2,0,0,1-.19.18h-2.54a.2.2,0,0,1-.19-.18l.07-11-.07-10.36a.2.2,0,0,1,.19-.18h7.66c5,0,8,2.14,8,6.39,0,3.47-2,5.55-5.27,6.2l5.73,9a.1.1,0,0,1-.09.15h-3a.39.39,0,0,1-.28-.15ZM162,13.05H156.8l-.06,8.28H162c2.88,0,4.84-1.21,4.84-4.12S165.08,13.05,162,13.05Z" fill="#1d1d1b"/>
  <path d="M178.81,32.28a.19.19,0,0,1-.18.18h-2.58a.19.19,0,0,1-.18-.18l.06-7.23-7.17-14.14c-.06-.06,0-.15.1-.15h2.91a.36.36,0,0,1,.28.15l5.43,11.41,5.45-11.41a.39.39,0,0,1,.28-.15h2.67c.09,0,.16.09.09.15l-7.22,14.2Z" fill="#1d1d1b"/>
  <path d="M186.59,32.46a.2.2,0,0,1-.19-.18l.1-10.67-.1-10.67a.2.2,0,0,1,.19-.18h12.9a.19.19,0,0,1,.18.18v2a.19.19,0,0,1-.18.18H189.32l-.06,7.6H199a.2.2,0,0,1,.19.19v1.95A.21.21,0,0,1,199,23h-9.7l.06,9.27a.2.2,0,0,1-.19.18Z" fill="#1d1d1b"/>
  <path d="M200.76,32.46a.2.2,0,0,1-.19-.18l.06-11.17-.06-10.17a.2.2,0,0,1,.19-.18h2.54a.2.2,0,0,1,.19.18l-.07,10,.07,9.18h9.7a.2.2,0,0,1,.19.18v2a.2.2,0,0,1-.19.18Z" fill="#1d1d1b"/>
  <path d="M214.58,32.46a.19.19,0,0,1-.18-.18l.06-10.86-.06-10.48a.19.19,0,0,1,.18-.18h2.51a.2.2,0,0,1,.19.18l-.06,10.48.06,10.86a.2.2,0,0,1-.19.18Z" fill="#1d1d1b"/>
  <path d="M228.6,32.87c-5.89,0-10-4.44-10-11.26s4.19-11.25,9.89-11.25c4.9,0,8.16,2.54,9.18,7.13a.17.17,0,0,1-.15.18h-2.61c-.09,0-.22-.09-.22-.18-.71-3.13-2.91-4.75-6.17-4.75-4.18,0-6.94,3.32-6.94,8.9s2.79,8.84,7,8.84,6.48-2.67,6.54-7H228.5a.19.19,0,0,1-.18-.18V21.36a.19.19,0,0,1,.18-.18h9.43a.2.2,0,0,1,.19.18C238.24,28.8,234.89,32.87,228.6,32.87Z" fill="#1d1d1b"/>
  <path d="M253.74,32.46a.2.2,0,0,1-.19-.18l.06-10.3H242.08l.06,10.3a.19.19,0,0,1-.18.18h-2.58a.19.19,0,0,1-.18-.18l.09-10.55-.09-10.79a.19.19,0,0,1,.18-.18H242a.19.19,0,0,1,.18.18l-.06,8.72h11.53l-.06-8.72a.2.2,0,0,1,.19-.18h2.57a.2.2,0,0,1,.19.18l-.1,10.79.1,10.55a.2.2,0,0,1-.19.18Z" fill="#1d1d1b"/>
  <path d="M263.84,32.46a.19.19,0,0,1-.18-.18l.09-10.58-.06-8.62h-6.14a.2.2,0,0,1-.19-.18v-2a.2.2,0,0,1,.19-.18h15.19a.2.2,0,0,1,.19.18v2a.2.2,0,0,1-.19.18H266.6l-.06,8.62.09,10.58a.19.19,0,0,1-.18.18Z" fill="#1d1d1b"/>
</svg>
